<svg xmlns="http://www.w3.org/2000/svg" fill="none" viewBox="0 0 204 153">
  <path fill="#000" stroke="#000" stroke-miterlimit="10" d="M134.16 83.68c-.06-1-.04-2 .1-2.99H91.57c-.84 0-1.53.7-1.53 1.53v1.53c0 .85.69 1.53 1.53 1.53h42.66c-.05-.53-.07-1.07-.07-1.6Zm34.83-2.99h-30.92c.33 1.55.61 3.1 1.07 4.6H169c.84 0 1.53-.7 1.53-1.54v-1.53c0-.84-.69-1.53-1.53-1.53Zm-69.81-1.11c4.55.06 8.23.02 8.24-.1 0-.1-3.69-.25-8.24-.3-4.55-.06-8.23-.02-8.24.1 0 .1 3.69.25 8.24.3ZM120 87.26c4.99 0 9.03-.1 9.03-.2 0-.12-4.04-.2-9.03-.2-4.98 0-9.02.08-9.02.2 0 .1 4.04.2 9.02.2Zm30.92-8.15c6.02 0 10.89-.09 10.89-.2 0-.11-4.88-.2-10.89-.2-6.01 0-10.89.09-10.89.2 0 .11 4.88.2 10.9.2Z"/>
  <path fill="#000" d="m103.3 104.22-.33-.37-.18-.2-.2-.26-.23-.3-.24-.36a7.09 7.09 0 0 1-.91-2.02c-.04-.1-.05-.21-.08-.32l-.06-.33a1.61 1.61 0 0 1-.04-.34l-.04-.36.03-.75.05-.38c.03-.13.04-.26.06-.4a7.65 7.65 0 0 1 1.45-3.11c.03-.06.1-.11.15-.18l.15-.18.15-.18.08-.08.03-.03v-.01l.03-.02.04-.03c.23-.2.44-.42.72-.6.52-.41 1.1-.7 1.72-.96l.47-.17c.16-.05.33-.08.5-.12l.24-.07c.09 0 .16-.02.25-.03a6.92 6.92 0 0 1 2.6.05c.68.14 1.36.4 1.98.71l.46.27.11.06.1.08.22.15.22.15.2.18.41.37.35.38.16.2.17.21.16.22.08.11.06.12.27.46c.33.64.58 1.3.72 1.99.12.69.17 1.39.11 2.08l-.06.5-.04.26-.06.24-.13.5-.17.47a7.3 7.3 0 0 1-.95 1.72c-.18.27-.41.5-.62.73l-.03.04-.03.02-.01.02s-.03.02-.03 0l-.09.09-.16.15-.17.15a.7.7 0 0 1-.18.14l-.37.28-.19.13-.19.11-.38.23-.4.2c-.25.12-.53.21-.79.3-.13.05-.27.08-.4.12l-.39.1-.4.06-.38.05c-.25.02-.5.04-.75.02l-.36-.04-.34-.04a3.7 3.7 0 0 0-.33-.07c-.12-.02-.22-.03-.32-.07a7.27 7.27 0 0 1-2.37-1.14c-.12-.07-.2-.15-.3-.23l-.26-.2-.2-.18-.34-.3Zm0 0 .37.33.2.18.27.18.3.2.4.2c.53.27 1.22.53 2.03.63.1.03.2.03.3.04l.33.02c.1.02.21.02.33.02h.33l.34-.02h.36c.11 0 .24-.03.36-.05l.37-.05.37-.09c.12-.02.25-.05.37-.1.24-.09.5-.16.74-.28l.37-.18.35-.2c.07-.04.12-.08.18-.1l.17-.12.33-.24.16-.14.17-.16.17-.15.09-.07.06-.08c.19-.22.4-.43.57-.68.37-.47.65-1.02.9-1.59l.15-.45c.05-.15.08-.3.11-.46l.05-.23.04-.22.07-.48a8.4 8.4 0 0 0-.1-1.93 7 7 0 0 0-.67-1.85l-.25-.44-.07-.1-.07-.1-.14-.2-.14-.18-.17-.2-.34-.38-.36-.32c-.07-.05-.12-.11-.2-.16l-.2-.15-.2-.16-.1-.07-.1-.07-.44-.25a6.97 6.97 0 0 0-3.78-.77l-.48.07-.23.03-.23.06c-.15.03-.3.06-.45.11l-.45.15-.12.04-.1.05-.2.1-.41.2-.4.24c-.12.07-.24.18-.35.25-.25.16-.46.39-.7.59l-.03.04-.03.01v.01l-.08.08-.14.17-.14.16a6.86 6.86 0 0 0-1.58 3.79l-.02.35c0 .12-.02.23-.01.35v.33l.01.33c.02.1.02.22.03.32.01.1.01.2.04.3a6.34 6.34 0 0 0 .82 2.43l.2.3.19.27.18.2.3.34Zm12.18 16.97-.03.47-.01.26-.04.3-.04.36-.07.4a6.97 6.97 0 0 1-.72 2c-.04.11-.1.19-.16.28a1.5 1.5 0 0 0-.18.28l-.2.26-.22.27c-.08.1-.17.18-.26.26l-.28.24-.3.23-.31.23c-.87.57-1.94 1-3.12 1.15-.16.02-.3.02-.45.02l-.23.01h-.23c-.3 0-.57 0-.9-.07a7.2 7.2 0 0 1-1.84-.52c-.14-.08-.3-.15-.45-.22l-.42-.26-.21-.12a3 3 0 0 0-.2-.16c-.14-.1-.28-.19-.4-.3a8.04 8.04 0 0 1-1.35-1.5 7.58 7.58 0 0 1-.89-1.87 7.42 7.42 0 0 1-.3-2.05l.02-.51c.02-.1 0-.17.02-.26l.04-.27.03-.26.03-.13.02-.13.13-.5c.22-.66.5-1.28.88-1.86.38-.56.84-1.07 1.35-1.5.13-.12.27-.2.4-.3a3 3 0 0 1 .2-.16l.22-.13c.14-.09.28-.18.42-.25l.45-.22c.6-.25 1.2-.44 1.83-.52.3-.07.62-.07.92-.08h.23l.22.01.21.02.22.01.45.06.21.04.22.05c.14.04.28.08.42.1l.4.15c.26.08.5.21.75.33.13.05.24.12.34.19.12.06.23.14.33.2.2.16.43.3.62.46.19.17.38.32.52.5a3.92 3.92 0 0 1 .42.53l.18.28.16.27a7.3 7.3 0 0 1 .8 2.41c.03.13.03.26.05.36a8 8 0 0 0 .03.3c.02.1.02.18.02.26.05.43.05.6.05.6Zm0 0-.03-.47-.02-.26-.05-.3c-.03-.12-.04-.23-.08-.36l-.13-.4a6.39 6.39 0 0 0-.98-1.78c-.05-.08-.13-.15-.2-.23a1.37 1.37 0 0 0-.2-.23l-.21-.23-.23-.22-.24-.21-.25-.23-.54-.42-.31-.2c-.1-.06-.2-.12-.32-.17-.22-.1-.44-.23-.69-.3l-.36-.14-.38-.1-.19-.05-.19-.04-.38-.06-.2-.01-.22-.02-.22-.01h-.2c-.28.01-.56.01-.84.08-.57.06-1.13.25-1.67.47l-.4.19c-.13.06-.26.15-.38.23l-.2.11c-.06.04-.1.1-.17.14-.12.1-.25.18-.36.28a6.54 6.54 0 0 0-2.01 3.05l-.12.46-.03.12v.11l-.05.23-.03.23c-.02.08-.02.16-.02.24l-.02.49c.01.62.1 1.26.28 1.86a7 7 0 0 0 .79 1.68 7 7 0 0 0 1.22 1.36l.36.28.18.15.19.11c.13.08.26.17.38.23l.4.2.1.04.1.04.2.08c.15.05.27.1.43.14l.42.1c.14.04.28.05.4.06.27.05.58.05.86.08h.09c-.03 0 .01 0 0 0h.1l.2-.01c.14-.02.28 0 .41-.03a6.6 6.6 0 0 0 3.4-1.45l.24-.23c.07-.08.16-.14.24-.22l.23-.22c.07-.07.15-.14.22-.23l.2-.22.19-.23c.5-.62.8-1.25 1-1.79.03-.14.08-.27.12-.38.04-.13.05-.24.08-.36l.05-.3c.01-.1.01-.18.03-.26v-.47Z"/>
  <path fill="#000" stroke="#000" stroke-miterlimit="10" d="M116.71 123.18s.03-.07.04-.17a.88.88 0 0 0 .03-.2l.01-.13v-.06l.01-.08a7.25 7.25 0 0 0 .13-1.08l.01-.44-.02-.43-.04-.4a6.44 6.44 0 0 0-.13-.69l-.01-.06-.01-.06-.02-.13c0-.08-.02-.15-.03-.2a.76.76 0 0 0-.06-.17l.1.15.1.18.09.12.03.06.03.08a3.8 3.8 0 0 1 .25 1.1c.02.16.03.31.03.47l-.01.45-.05.43c-.06.26-.1.5-.18.7-.02.02-.02.05-.03.07l-.04.07c-.02.03-.05.07-.06.11l-.1.18a.44.44 0 0 0-.07.13Zm1.16 1.27.1-.25.03-.14.04-.17.04-.19.02-.1.03-.1.06-.23c.03-.08.04-.17.05-.26l.1-.56.04-.3.02-.16v-.16c.02-.22.02-.45.03-.68 0-.23 0-.46-.03-.68l-.02-.16c0-.05 0-.1-.02-.15l-.05-.31-.12-.56-.06-.26a1.52 1.52 0 0 1-.06-.23l-.04-.1-.03-.1a.97.97 0 0 0-.05-.2l-.04-.16-.05-.14c-.05-.16-.1-.25-.1-.25s.04.09.14.23l.16.27.1.17.06.1c.01.04.02.08.04.1l.09.24.07.25c.07.18.1.37.16.58l.06.31.02.17.02.17.05.7c0 .24 0 .47-.03.7l-.01.16c-.01.06-.01.12-.03.17a6.37 6.37 0 0 1-.18.9l-.07.25-.08.23-.03.11-.06.1-.1.18c-.05.12-.11.2-.15.28-.06.14-.12.23-.12.23Zm1.6 0s.04-.1.07-.3l.04-.14.03-.2.02-.21.02-.12c0-.04 0-.07.02-.12l.05-.27a42.72 42.72 0 0 0 .1-.93c.02-.12.02-.23.02-.35l.01-.17v-.18l-.02-.77-.1-.75c0-.06 0-.12-.02-.18l-.04-.18-.06-.34a22.3 22.3 0 0 0-.23-.9c-.03-.1-.06-.19-.1-.26l-.03-.12-.04-.11-.06-.22c-.03-.06-.04-.13-.05-.18a.44.44 0 0 1-.05-.15l-.12-.28a10.87 10.87 0 0 0 .35.56l.11.2c.03.03.05.05.06.1.02.03.03.07.06.1l.1.26.1.28c.08.2.13.41.2.64l.07.34.04.18.02.2c.05.25.06.5.1.77 0 .27.02.54 0 .8v.36l-.03.36-.1.65-.07.3a1.1 1.1 0 0 0-.06.26.46.46 0 0 0-.03.13.27.27 0 0 1-.05.11l-.09.2-.14.34-.1.3Zm-18.94-1.86s0-.05-.06-.14l-.09-.15-.05-.1a.1.1 0 0 1-.03-.06v-.06a3.3 3.3 0 0 1-.12-.6c-.02-.11-.02-.24-.02-.36l.02-.4a3.38 3.38 0 0 1 .15-.73c.06-.22.14-.42.23-.57l.02-.07.04-.05.08-.09.11-.14.1-.11-.06.14-.04.16v.12c0 .02 0 .04-.02.06 0 .03-.01.04-.03.06a6.76 6.76 0 0 0-.21.9c-.03.11-.04.24-.05.35-.02.13-.03.25-.03.38v.34l.04.57.01.07v.35l.01.13Zm-1 .9-.1-.21-.13-.24-.08-.16-.04-.07-.02-.1c-.04-.12-.1-.26-.12-.41a5.43 5.43 0 0 1-.09-.49l-.02-.27c-.02-.08-.02-.17-.03-.28a4.53 4.53 0 0 1 .07-1.17c0-.09.02-.19.05-.28 0-.09.03-.18.05-.27l.14-.47.15-.4.04-.1.05-.07.09-.14c.05-.1.1-.17.15-.22.1-.11.12-.19.12-.19l-.08.2a2.14 2.14 0 0 0-.11.42l-.03.1a.24.24 0 0 0-.03.08l-.11.4c-.04.14-.08.3-.1.46l-.04.25-.04.27-.05.56c0 .2-.01.38 0 .56l.01.27.03.26.06.47.08.4.02.1.02.08.02.17.05.25c0 .16.02.23.02.23Zm-1.53.77-.12-.27-.14-.3a.88.88 0 0 0-.09-.2l-.05-.1-.02-.12-.07-.26-.06-.28-.1-.62-.03-.35-.01-.18v-.17c-.01-.25.01-.5.02-.76.03-.25.05-.5.1-.74a.5.5 0 0 0 .03-.17l.04-.17.08-.33c.06-.22.11-.42.19-.6l.1-.27.1-.24.05-.12c.01-.04.04-.06.07-.1l.11-.18c.06-.11.14-.2.2-.28.1-.15.14-.24.14-.24s-.05.09-.11.27l-.06.14-.05.18-.07.2-.04.12-.03.11-.1.24-.07.27-.17.59-.06.32-.04.16-.02.17-.1.71-.02.73v.18l.01.16.02.33.06.62.04.28.05.25.03.12v.11l.03.2.03.18.04.16a8 8 0 0 0 .09.25Zm13.6.32a1.1 1.1 0 0 0-.09.1.58.58 0 0 1-.11.13l-.17.15c-.14.12-.3.25-.53.36l-.18.08-.2.07c-.15.05-.3.08-.47.08a1.76 1.76 0 0 1-1.27-.44c-.08-.06-.14-.14-.22-.22a2.88 2.88 0 0 1-.33-.54c-.19-.38-.34-.77-.53-1.17l-.57-1.27c-.19-.43-.38-.85-.54-1.27a8.2 8.2 0 0 1-.41-1.24c-.1-.4-.13-.81-.1-1.2a2.8 2.8 0 0 1 .5-1.41 2.12 2.12 0 0 1 .82-.66c.17-.08.3-.1.38-.13.1-.01.13-.03.14-.03l-.14.04a1.82 1.82 0 0 0-.82.57 2 2 0 0 0-.3.5l-.09.2a3.02 3.02 0 0 0-.09 2.05c.1.38.25.79.41 1.2l.55 1.26c.2.43.37.85.55 1.26l.5 1.17c.17.36.4.67.67.84.28.18.6.26.9.26l.21-.01.2-.03.2-.04a2.63 2.63 0 0 0 .74-.32c.07-.05.14-.09.17-.14.06-.03.1-.07.13-.11l.1-.09Z"/>
  <path fill="#000" stroke="#000" stroke-miterlimit="10" d="M111.54 124.6v-.15c0-.05 0-.1-.02-.18a.63.63 0 0 0-.05-.22c-.02-.1-.06-.18-.1-.29a1.84 1.84 0 0 0-.61-.7l-.04-.02c-.01 0-.01-.02-.03-.02l-.05-.02-.03.05-.12.12a2.4 2.4 0 0 1-.28.2 1.55 1.55 0 0 1-.52.2.42.42 0 0 1-.27-.05c-.04-.02-.06-.06-.09-.09a.87.87 0 0 1-.05-.09l-.06-.15-.14-.3-.3-.64-.61-1.37-.47-1.08-.23-.52c-.08-.18-.14-.4-.1-.6.03-.2.14-.4.25-.54.13-.14.28-.25.44-.33.15-.08.3-.13.45-.17l.22-.05.05-.01h.03l.05-.01v-.13a.98.98 0 0 0-.03-.2 1.71 1.71 0 0 0-.07-.39l-.14-.31a1.95 1.95 0 0 0-.17-.25 1 1 0 0 0-.17-.16l-.14-.12-.12-.07h.04l.08.06c.04.03.1.05.16.1.06.04.11.1.19.15.06.07.14.14.2.23l.2.31c.07.11.12.25.16.4.01.07.03.15.03.23v.15c0 .06 0 .13-.02.19a3.32 3.32 0 0 1-.3.06l-.2.05a1.63 1.63 0 0 0-.75.44.8.8 0 0 0-.17.4c-.03.13 0 .27.08.44l.23.5.47 1.08.6 1.36.29.65c.05.1.08.2.12.31l.07.15c0 .03 0 .04.02.05l.01.03.08.01c.04 0 .09-.02.14-.04l.3-.12c.08-.05.17-.1.24-.17a2.08 2.08 0 0 0 .28-.28l.16.09.08.05.05.04.18.15a2 2 0 0 1 .4.69c.05.1.06.2.08.3l.03.24v.17l-.01.1v.1Z"/>
  <path fill="#000" d="M109.6 101.9h-.23l-.28.01-.38.03-1.04.1-.63.05h-2.29l-.12-.01c-.05 0-.1-.02-.14-.03a.83.83 0 0 1-.25-.11 1 1 0 0 1-.34-.42.94.94 0 0 1-.06-.27v-3.61a.9.9 0 0 1 .9-.73h4.86l.13.02c.1 0 .17.03.26.09.17.07.3.2.39.35l.1.24.02.13v1.29c0 .24.02.48 0 .7 0 .23-.03.43-.05.64-.02.2-.03.38-.06.56a1.9 1.9 0 0 1-.08.48.83.83 0 0 1-.48.45c-.08.03-.13.03-.17.04h-.06Zm0 0h.06c.04 0 .1-.01.17-.04a.56.56 0 0 0 .23-.14l.11-.14c.03-.05.07-.11.08-.18.04-.13.01-.28-.01-.46l-.07-.56-.05-.64v-1.96l-.01-.08a.48.48 0 0 0-.05-.14.54.54 0 0 0-.23-.21c-.05-.03-.1-.04-.14-.05-.02 0-.07 0-.1-.02h-4.84a.53.53 0 0 0-.33.12.47.47 0 0 0-.18.3c-.02.1 0 .3 0 .45v3.05c0 .05 0 .1.03.15.08.2.28.34.5.34h2.28l.64.06 1.03.1.38.02.28.02h.22Z"/>
  <path fill="#000" stroke="#000" stroke-miterlimit="10" d="M110.93 99.77c0-.01.1 0 .24.11.14.1.3.31.47.54.09.11.2.23.32.32l.1.05c.04.01.08.02.1.04.04.01.05.01.07 0l.03-.04a.48.48 0 0 0 .08-.23l.06-.3c.04-.21.08-.43.1-.64l.05-.65v-.31a.58.58 0 0 0-.04-.23.13.13 0 0 0-.1-.08 3.68 3.68 0 0 0-.66.22c-.53.22-.85.42-.88.38-.02-.02.25-.29.8-.57.14-.06.28-.14.44-.2.1-.03.17-.08.3-.1.06 0 .15.02.21.06.06.04.12.1.14.16.06.12.08.24.08.36v.32c0 .22-.02.44-.04.67l-.1.67-.08.3a.71.71 0 0 1-.14.33.34.34 0 0 1-.19.13.4.4 0 0 1-.22 0 .77.77 0 0 1-.15-.06c-.04-.03-.09-.05-.13-.1a1.93 1.93 0 0 1-.34-.39c-.17-.25-.28-.45-.38-.57-.08-.11-.14-.17-.14-.2Z"/>
  <path fill="#000" d="m45.67 42.5-.33-.37-.18-.2-.2-.26-.23-.3-.25-.37a7.1 7.1 0 0 1-.9-2.01c-.04-.1-.05-.22-.08-.32l-.06-.33a1.58 1.58 0 0 1-.04-.35l-.04-.35c-.01-.24.02-.5.03-.75l.05-.39.06-.4a7.65 7.65 0 0 1 1.44-3.1c.04-.07.1-.12.16-.18l.15-.18.15-.18.08-.09.02-.02.02-.02h.02l.04-.05c.23-.2.43-.42.72-.6.52-.4 1.1-.7 1.72-.95l.47-.17.5-.13.24-.06.25-.04a6.99 6.99 0 0 1 2.6.05c.68.14 1.36.4 1.98.72l.46.26.11.07.1.07.22.16.22.15c.08.05.14.12.2.18l.41.37.35.38.16.2.17.21.16.22.08.11.06.12.27.45a7.58 7.58 0 0 1 .83 4.07l-.06.51-.04.26-.07.24c-.03.17-.07.33-.12.5l-.17.47a7.28 7.28 0 0 1-.96 1.72c-.17.27-.4.5-.6.73l-.05.03-.02.03-.01.01-.03.02-.09.07-.16.16-.17.15c-.05.05-.1.1-.18.14l-.37.28-.19.13-.2.11-.37.23-.4.2c-.25.12-.53.2-.79.3-.13.05-.27.07-.4.11l-.39.1-.4.07-.38.05c-.25.01-.5.04-.75.01a29.6 29.6 0 0 1-.36-.04c-.11 0-.23 0-.34-.03a3.73 3.73 0 0 0-.33-.07l-.32-.07a7.26 7.26 0 0 1-2.37-1.14l-.3-.23-.26-.2-.2-.18-.34-.3Zm0 0 .37.33.2.18.27.17.3.2.4.21c.53.27 1.21.52 2.03.63l.3.03c.1.02.22.02.33.03l.33.01h.33l.34-.01.36-.01c.11 0 .24-.03.36-.04l.37-.05.37-.1c.12-.02.25-.04.37-.1.24-.08.5-.16.74-.27l.37-.18c.11-.07.22-.14.35-.2.07-.04.12-.08.18-.1l.17-.12.33-.24.16-.15.17-.15.17-.15.08-.08.07-.07c.19-.22.4-.44.57-.68.37-.47.65-1.02.9-1.6l.15-.44c.05-.15.07-.3.11-.46l.05-.23.04-.23a7.65 7.65 0 0 0-.04-2.41 6.98 6.98 0 0 0-.66-1.85l-.25-.43-.07-.1-.08-.1-.14-.2-.14-.19-.16-.19-.35-.38-.35-.32c-.07-.05-.12-.11-.2-.16l-.2-.16-.2-.15-.1-.08-.1-.06-.44-.26a6.98 6.98 0 0 0-3.79-.76c-.16.01-.31.04-.47.06l-.23.04-.23.05-.46.12-.44.15-.12.04-.1.05-.2.1-.41.2-.4.23-.35.26c-.25.15-.46.38-.7.59l-.03.03-.03.02v.01l-.08.08-.14.16-.15.17-.14.16a6.91 6.91 0 0 0-1.43 3.62l-.02.36c0 .12-.02.23-.01.35V38l.01.33c.01.1.01.22.03.32A6.31 6.31 0 0 0 44.6 41c.08.12.14.25.2.38l.2.3.19.27.17.2c.2.2.31.34.31.34ZM57.4 19.05l-.02.47c0 .08 0 .17-.02.25l-.04.31-.03.36-.08.4a6.92 6.92 0 0 1-.88 2.28l-.18.28c-.06.1-.13.17-.2.26l-.22.27a2.4 2.4 0 0 1-.25.26l-.29.24c-.08.08-.2.15-.3.23l-.3.23c-.87.57-1.95 1-3.13 1.15-.15.02-.3.02-.45.02l-.23.01h-.23c-.29 0-.57 0-.9-.07a7.18 7.18 0 0 1-1.84-.53l-.44-.21-.42-.26-.22-.13-.2-.15-.4-.3a8.03 8.03 0 0 1-1.35-1.5 7.55 7.55 0 0 1-.88-1.87 7.4 7.4 0 0 1-.3-2.05l.02-.51.01-.26.04-.27.04-.26.02-.13.03-.13.13-.5c.21-.66.5-1.28.88-1.86a7.6 7.6 0 0 1 1.35-1.5c.12-.12.26-.2.4-.3.06-.06.12-.11.2-.16l.21-.13c.14-.09.28-.18.42-.25l.45-.22c.6-.25 1.21-.45 1.84-.52.3-.07.6-.07.91-.08h.23l.22.01.22.02h.21a6.3 6.3 0 0 0 .67.11l.21.05c.14.04.28.08.42.1.14.06.27.1.4.14.27.1.5.22.75.34.13.05.24.12.35.19l.33.2c.2.15.42.3.6.46.2.17.4.32.53.5a3.98 3.98 0 0 1 .42.53l.18.28c.05.1.12.18.17.27.4.73.6 1.44.72 2l.08.41c.03.13.03.26.04.36l.04.3.01.26.05.6Zm0 0-.02-.47c-.02-.08-.02-.17-.03-.26l-.05-.3c-.03-.12-.04-.23-.08-.36-.04-.13-.07-.26-.13-.4a6.3 6.3 0 0 0-.98-1.78c-.05-.08-.12-.15-.19-.23l-.2-.23a3.6 3.6 0 0 0-.45-.45l-.24-.21-.24-.23-.55-.42-.3-.2c-.1-.06-.21-.12-.33-.17-.21-.1-.44-.23-.68-.31l-.36-.13-.38-.1-.2-.05-.19-.04-.38-.06c-.06-.02-.14-.02-.2-.02H51l-.22-.02h-.2c-.28.01-.56.01-.84.08-.56.06-1.12.25-1.67.47l-.4.19c-.13.06-.25.15-.38.23l-.2.11c-.06.04-.1.1-.17.14-.11.1-.24.18-.36.28a6.56 6.56 0 0 0-2.01 3.05l-.12.46-.02.11-.01.12-.04.23-.04.23-.01.24-.03.49c.01.62.1 1.26.28 1.86a6.63 6.63 0 0 0 2.02 3.04l.35.28.18.14.2.12c.12.08.25.17.38.23l.39.19.1.05.1.04.2.08.43.14.42.1c.14.04.28.05.4.06.28.05.58.05.86.08h.1c-.03 0 0 0 0 0h.1l.2-.01c.14-.02.28 0 .4-.03a6.6 6.6 0 0 0 3.4-1.45l.24-.23.24-.22.23-.22c.08-.07.15-.14.22-.23l.2-.23.2-.22c.49-.62.8-1.25.99-1.79l.12-.38c.04-.13.06-.24.08-.36.03-.11.04-.22.05-.3l.03-.26.01-.47Z"/>
  <path fill="#000" stroke="#000" stroke-miterlimit="10" d="M58.62 21.05s.03-.06.04-.17a.89.89 0 0 0 .03-.2l.01-.13v-.06l.01-.08a7.02 7.02 0 0 0 .13-1.08l.01-.43c0-.16 0-.3-.02-.44l-.04-.4a6.47 6.47 0 0 0-.13-.68l-.01-.07-.01-.06-.02-.13a3.04 3.04 0 0 0-.03-.2c-.03-.12-.06-.17-.06-.17l.1.16.1.18.09.11c0 .03.02.04.03.06l.03.08a3.77 3.77 0 0 1 .25 1.1l.03.47-.01.46a3.82 3.82 0 0 1-.23 1.12c-.02.02-.02.05-.03.08l-.04.06a.51.51 0 0 0-.06.11l-.1.18a1 1 0 0 0-.07.13Zm1.18 1.26.09-.25a2.1 2.1 0 0 0 .07-.3l.04-.2.03-.1a.4.4 0 0 0 .02-.1l.07-.23.05-.26.1-.56.04-.3.01-.16.01-.16c.02-.22.02-.45.03-.68-.01-.23-.01-.46-.04-.68l-.01-.16-.03-.15a42.95 42.95 0 0 0-.17-.87l-.06-.26c-.02-.07-.05-.15-.06-.23l-.04-.1c-.01-.04-.01-.07-.03-.1a1.06 1.06 0 0 0-.05-.2l-.03-.16-.06-.14c-.05-.16-.1-.25-.1-.25s.04.09.14.23l.17.27.1.17.05.1.04.1.09.24.08.25c.06.18.1.37.15.58l.06.31.03.17.01.17c.03.23.04.46.05.7 0 .24 0 .47-.02.7l-.02.16-.02.17-.05.32a6.38 6.38 0 0 1-.2.83l-.08.23-.04.11-.05.1-.1.18-.16.28-.11.23Zm1.6.02.07-.3.04-.15c0-.06 0-.13.02-.2.01-.06.03-.13.03-.2v-.12c.02-.04.02-.08.03-.13l.06-.27a17.76 17.76 0 0 0 .1-.93l.01-.34.01-.18v-.18l-.02-.77c-.03-.25-.05-.5-.1-.75 0-.06 0-.11-.02-.18l-.04-.18-.06-.34-.15-.62-.08-.28c-.02-.1-.06-.18-.09-.26l-.04-.11-.03-.12-.07-.22-.05-.17-.05-.16-.11-.28a10.35 10.35 0 0 0 .34.56l.11.2c.03.03.06.06.07.1.01.03.02.07.05.11l.1.26.1.28c.08.19.13.4.2.63l.07.35.04.18.02.19c.06.25.07.5.1.78 0 .26.02.53 0 .79v.37l-.03.35c-.03.23-.05.45-.1.65l-.07.3a2.03 2.03 0 0 0-.09.4c-.01.03-.02.07-.05.1-.02.08-.06.15-.09.21l-.14.33-.1.3Zm-18.96-1.87s0-.05-.06-.14c-.03-.03-.05-.1-.09-.15l-.05-.1a.1.1 0 0 1-.03-.05v-.07a3.34 3.34 0 0 1-.12-.6c-.02-.11-.02-.24-.02-.35l.02-.4a3.4 3.4 0 0 1 .15-.74c.06-.21.14-.42.23-.57l.03-.06.03-.06.08-.08.11-.15.1-.11-.06.14-.04.17v.11c0 .03 0 .04-.02.06 0 .03-.01.04-.03.07a6.69 6.69 0 0 0-.21.9c-.03.1-.04.23-.05.35a2.3 2.3 0 0 0-.03.37v.34l.04.58.01.06v.36l.01.12Zm-.99.9-.1-.2-.13-.25-.08-.15-.03-.08c-.02-.02-.02-.06-.03-.09-.04-.13-.09-.27-.11-.42l-.1-.48-.02-.27-.03-.28a4.52 4.52 0 0 1 .07-1.18c.01-.08.02-.19.05-.28l.05-.26.14-.48.15-.4.04-.1.05-.07.1-.14c.04-.09.1-.16.15-.22.08-.11.11-.19.11-.19l-.08.2a2.13 2.13 0 0 0-.11.43l-.03.09a.24.24 0 0 0-.02.09l-.12.4c-.04.13-.07.28-.1.45l-.04.26-.04.26a7.6 7.6 0 0 0-.05.56v.57c0 .08 0 .17.02.26 0 .1 0 .18.02.26l.07.47a12.2 12.2 0 0 0 .1.5l.01.09c.01.06.01.11.03.16 0 .1.02.2.05.26-.03.15.01.23.01.23Zm-1.54.76-.12-.27-.14-.3a1.3 1.3 0 0 0-.09-.2l-.05-.1a.37.37 0 0 1-.02-.12l-.07-.26-.06-.28-.1-.62-.03-.35-.01-.18v-.17c-.01-.25.01-.5.02-.76.03-.25.05-.5.1-.74a3.34 3.34 0 0 1 .06-.34l.09-.33c.06-.22.11-.42.19-.6l.1-.27c.04-.09.08-.16.1-.24l.05-.12.07-.1.11-.18c.06-.11.14-.2.2-.28l.15-.24s-.06.09-.12.27l-.06.14-.05.18-.07.2-.04.12-.03.11-.1.24-.07.27-.17.59-.06.32-.04.16-.02.17-.1.71-.02.73v.18l.01.16.02.33.06.62.04.28.05.25.03.12v.11l.03.2a1 1 0 0 1 .03.18l.04.16.09.25Zm13.6.33-.09.1a1.95 1.95 0 0 1-.28.28 2.77 2.77 0 0 1-.92.52c-.14.05-.29.07-.46.07A1.75 1.75 0 0 1 50.5 23l-.22-.23a2.88 2.88 0 0 1-.33-.54c-.19-.38-.34-.76-.53-1.17l-.57-1.26c-.19-.44-.38-.86-.54-1.28a8.26 8.26 0 0 1-.41-1.23c-.1-.41-.13-.82-.1-1.2a2.8 2.8 0 0 1 .5-1.42 2.16 2.16 0 0 1 .82-.66c.17-.08.3-.1.38-.13l.15-.02c-.02 0-.06 0-.15.03a1.85 1.85 0 0 0-1.03.9l-.09.18a3.01 3.01 0 0 0-.18 2.24c.1.38.25.79.41 1.2l.55 1.26c.2.43.37.85.55 1.26l.5 1.18c.17.35.4.66.67.84.28.18.6.25.9.25l.21-.01c.06-.01.14-.01.2-.03l.2-.03a2.57 2.57 0 0 0 .74-.32.9.9 0 0 0 .17-.14c.06-.04.1-.08.13-.12l.1-.09Z"/>
  <path fill="#000" stroke="#000" stroke-miterlimit="10" d="M53.46 22.48v-.15l-.01-.18-.05-.23-.1-.28a1.8 1.8 0 0 0-.62-.7l-.04-.03-.02-.01c-.01-.02-.03-.02-.05-.03l-.04.05-.12.12c-.08.07-.17.14-.28.2a1.56 1.56 0 0 1-.52.2.42.42 0 0 1-.27-.05l-.09-.08-.05-.1-.06-.15-.14-.3-.3-.64-.6-1.36-.48-1.09-.23-.52c-.07-.18-.14-.4-.1-.6a1.24 1.24 0 0 1 .69-.87c.15-.07.3-.12.46-.16.07-.03.15-.04.22-.05l.05-.02h.07v-.14l-.02-.2a1.7 1.7 0 0 0-.08-.38 2 2 0 0 0-.3-.56 1.02 1.02 0 0 0-.17-.17l-.14-.11-.13-.08.04.01.09.05.15.1c.07.04.12.1.2.16l.2.23c.06.09.14.19.2.3.06.12.12.26.15.4.02.07.03.15.03.23v.15l-.01.2a3.34 3.34 0 0 1-.3.06c-.06 0-.14.03-.2.05a1.61 1.61 0 0 0-.75.43.8.8 0 0 0-.18.4c-.03.14.01.28.09.44l.23.51.47 1.07.6 1.37.28.65.13.3.06.16.03.05v.02c.02.02.03.02.08.02.04 0 .1-.03.14-.04l.3-.13c.09-.05.18-.1.24-.17a2.1 2.1 0 0 0 .28-.28l.17.1.07.04.05.04.18.15a2 2 0 0 1 .41.7c.04.1.05.2.08.29l.02.24v.18l-.01.1v.09Z"/>
  <path fill="#000" d="M51.96 40.16h-.23c-.08 0-.17 0-.28.02-.12 0-.25 0-.39.02l-1.03.1c-.2.03-.4.04-.64.05-.23.02-.46 0-.7 0h-1.71c-.05 0-.09-.02-.14-.03a.85.85 0 0 1-.24-.12 1 1 0 0 1-.34-.42 1.02 1.02 0 0 1-.07-.27v-3.44l.02-.15a.9.9 0 0 1 .89-.73h4.86l.12.01c.1.02.18.04.27.1.17.07.3.2.38.35.04.08.08.15.1.24.02.04.02.1.03.13V38l-.05.64-.06.56c-.02.16-.03.34-.08.48a.83.83 0 0 1-.48.45c-.08.02-.13.02-.17.04l-.06-.02Zm0 0h.06a.5.5 0 0 0 .17-.04.56.56 0 0 0 .23-.14l.11-.14.08-.17c.03-.13 0-.28-.02-.46 0-.18-.03-.36-.06-.56-.03-.2-.04-.41-.05-.64v-1.97l-.01-.07-.05-.14a.54.54 0 0 0-.23-.22l-.14-.05-.1-.01h-4.84a.52.52 0 0 0-.33.11.47.47 0 0 0-.18.3c-.02.11-.01.3-.01.45v3.05c0 .05.01.1.04.15.07.2.28.35.5.35h2.27l.63.05 1.04.1.38.03.28.01.22.01Z"/>
  <path fill="#000" stroke="#000" stroke-miterlimit="10" d="M53.3 38.03s.1 0 .24.12c.14.1.29.3.47.53.09.12.19.23.32.32.02.03.06.04.1.05l.1.04c.04.01.05.01.07 0l.03-.04a.48.48 0 0 0 .08-.23l.06-.3a11.12 11.12 0 0 0 .14-1.29v-.3a.57.57 0 0 0-.03-.24.13.13 0 0 0-.1-.07 3.62 3.62 0 0 0-.66.22c-.53.21-.85.42-.88.38-.02-.03.25-.3.8-.58.13-.06.27-.14.44-.2.09-.03.17-.08.3-.09.06 0 .15.01.21.05s.12.1.14.17c.06.11.08.24.08.35v.32a6.18 6.18 0 0 1-.14 1.34l-.08.3a.75.75 0 0 1-.14.34.34.34 0 0 1-.2.13.41.41 0 0 1-.2 0 .78.78 0 0 1-.16-.07.5.5 0 0 1-.13-.09 1.9 1.9 0 0 1-.34-.4c-.17-.25-.28-.45-.38-.57-.08-.11-.16-.16-.15-.19Z"/>
  <path fill="#000" d="M116.25 8.31H37.52c-.84 0-1.53-.69-1.53-1.53V5.8c0-.84.7-1.53 1.53-1.53h78.73c.85 0 1.53.69 1.53 1.53v.98c0 .84-.68 1.53-1.53 1.53Z"/>
  <path fill="#000" stroke="#000" stroke-miterlimit="10" d="M82.27 10.09c6.7.14 12.12.16 12.12.05s-5.42-.32-12.1-.46c-6.7-.14-12.12-.17-12.12-.06 0 .12 5.42.32 12.1.47Zm-41-6.53c1.5 0 2.72-.1 2.72-.2 0-.12-1.22-.21-2.72-.21-1.5 0-2.71.1-2.71.2 0 .12 1.21.2 2.71.2ZM32.8 28.92c-.02 0-.03-.3-.02-.86.01-.55.04-1.34.09-2.3.08-1.96.2-4.65.3-7.63.08-2.98.15-5.67.18-7.62.03-.99.04-1.78.07-2.31.02-.55.05-.86.07-.86.03 0 .07.31.1.86l.06 2.32a161.9 161.9 0 0 1-.7 17.57 5 5 0 0 1-.14.83Zm57.24 103.46c.23 0 .42-11.56.42-25.83 0-14.26-.19-25.83-.42-25.83-.23 0-.42 11.57-.42 25.83 0 14.27.19 25.83.42 25.83Zm26.01 2.52c13.94 0 25.24-.18 25.24-.41 0-.24-11.3-.42-25.24-.42-13.94 0-25.25.19-25.25.42 0 .23 11.3.42 25.25.42Zm54.61-.73c.23 0 .42-11.93.42-26.65 0-14.72-.19-26.65-.42-26.65-.23 0-.42 11.93-.42 26.65 0 14.72.19 26.65.42 26.65Zm-58.91-53.21c11.66 0 21.1-.19 21.1-.42 0-.23-9.44-.42-21.1-.42-11.65 0-21.1.19-21.1.42 0 .23 9.45.42 21.1.42Zm42.46-.29c8.75 0 15.84-.19 15.84-.42 0-.23-7.1-.42-15.84-.42-8.75 0-15.84.19-15.84.42 0 .23 7.1.42 15.84.42Zm-41.87 5.03c11.4 0 20.66-.18 20.66-.42 0-.23-9.25-.42-20.66-.42-11.4 0-20.65.2-20.65.42 0 .24 9.24.43 20.65.43Zm42.02-.44c8.1 0 14.67-.19 14.67-.42 0-.23-6.57-.42-14.67-.42s-14.66.19-14.66.42c0 .23 6.57.42 14.66.42Zm18.52 47.42c.23 0 .42-11.4.42-25.47 0-14.06-.19-25.46-.42-25.46-.23 0-.42 11.4-.42 25.47 0 14.06.19 25.46.42 25.46ZM88.4 115.2c.24 0 .43-7.18.43-16.06 0-8.87-.19-16.06-.42-16.06-.23 0-.42 7.2-.42 16.06 0 8.88.19 16.07.42 16.07Zm19.57 22.23c11.11 0 20.13-.19 20.13-.42 0-.23-9.02-.42-20.13-.42-11.12 0-20.14.19-20.14.42 0 .23 9.02.42 20.14.42Zm22.37 1.33c3.2 0 5.78-.19 5.78-.42 0-.24-2.59-.42-5.78-.42-3.19 0-5.77.19-5.77.42 0 .23 2.58.42 5.77.42Zm34.17.6c3.4 0 6.15-.2 6.15-.42 0-.24-2.75-.42-6.15-.42-3.4 0-6.14.18-6.14.42 0 .23 2.75.42 6.14.42Zm2.29-4.01c2.05 0 3.7-.18 3.7-.42 0-.23-1.65-.42-3.7-.42-2.03 0-3.69.2-3.69.42 0 .24 1.66.42 3.7.42Zm-30.62-81.72c.05.11-.38.37-1 .83a10.57 10.57 0 0 0-2.15 2.09 9.83 9.83 0 0 0-1.67 3.46c-.03.2-.05.34-.11.36-.05.01-.15-.09-.22-.33-.06-.24-.07-.6 0-1.02a7.11 7.11 0 0 1 2.61-4.25c.44-.35.87-.6 1.24-.79.74-.4 1.27-.46 1.3-.35Zm.39-4.33c0 .03-.07.06-.18.07l-.2.02a7.52 7.52 0 0 0-1.9.42c-.66.26-1.4.67-2.11 1.27s-1.38 1.39-1.99 2.3c-.6.92-1.1 1.87-1.53 2.72a9.38 9.38 0 0 0-.85 2.33 4.53 4.53 0 0 0 0 1.9l.06.2c.03.1.03.16 0 .19-.03 0-.08-.03-.15-.12-.04-.05-.1-.1-.13-.18-.04-.07-.09-.15-.13-.25-.18-.4-.3-1.05-.24-1.83.06-.77.33-1.67.74-2.57a19.46 19.46 0 0 1 1.53-2.86 9.98 9.98 0 0 1 2.2-2.45 7.06 7.06 0 0 1 2.4-1.22 5 5 0 0 1 1.81-.17c.1.02.2.03.28.06.08 0 .16.03.2.06.13.05.19.09.19.11Zm-2.21-4.67c0 .02-.06.07-.2.12-.07.03-.16.05-.26.1l-.34.13c-.51.2-1.24.54-2.04 1.1s-1.67 1.34-2.55 2.3a33.3 33.3 0 0 0-2.63 3.36 16.73 16.73 0 0 0-1.98 3.72 14.23 14.23 0 0 0-.83 3.33c-.1.97-.08 1.77-.06 2.33.04.55.06.87 0 .88-.02.02-.08-.06-.13-.2a3.75 3.75 0 0 1-.19-.63 9.46 9.46 0 0 1-.2-2.42c.04-1.03.24-2.25.7-3.54a17.16 17.16 0 0 1 2-3.93c.88-1.3 1.82-2.43 2.76-3.42.93-.98 1.9-1.76 2.79-2.28.9-.53 1.7-.8 2.26-.92l.38-.06.28-.01c.15-.02.24 0 .24.04Zm-9.4-21.77c1.33.46 2.46.66 2.54.44.08-.22-.94-.77-2.26-1.23-1.32-.46-2.46-.66-2.53-.44-.08.22.93.77 2.25 1.23Zm18.16 9.1c-.17.18-2.08-1.36-4.7-2.84-2.6-1.5-4.89-2.38-4.81-2.61.03-.1.66-.02 1.63.28a18.18 18.18 0 0 1 3.62 1.6 20.14 20.14 0 0 1 3.21 2.31c.73.7 1.13 1.19 1.05 1.26Zm9.87 12.32c-.2.12-1.28-1.45-2.8-3.21-1.5-1.76-2.89-3.06-2.74-3.25.07-.1.51.12 1.15.6a15.65 15.65 0 0 1 3.98 4.64c.36.69.5 1.17.4 1.22Zm6.83 13.13c-.23.07-.9-1.67-1.95-3.68-1.05-2.02-2.1-3.55-1.93-3.7.1-.06.48.23.99.82a12.7 12.7 0 0 1 1.68 2.5 15.03 15.03 0 0 1 1.11 2.8c.18.74.2 1.23.1 1.26Zm2.82 18.67c-.23-.01-.32-2.16-.52-4.8-.2-2.63-.44-4.76-.2-4.81.1-.03.31.5.51 1.35a22.67 22.67 0 0 1 .53 6.84c-.08.88-.2 1.42-.32 1.42Zm-116.2-.55c-.12.03-.34-.46-.55-1.29a19.25 19.25 0 0 1-.5-6.6c.1-.84.24-1.37.36-1.35.24.02.24 2.09.43 4.61.18 2.53.48 4.58.25 4.63Zm4.02 13.53c-.1.05-.4-.3-.77-.94a16.9 16.9 0 0 1-1.95-5.42c-.12-.74-.12-1.2 0-1.23.22-.05.77 1.67 1.53 3.74.73 2.06 1.41 3.75 1.2 3.85Zm7.97 13.7c-.18.13-1.73-1.54-3.31-3.86s-2.57-4.38-2.37-4.5c.2-.11 1.49 1.74 3.06 4.03 1.55 2.3 2.81 4.18 2.62 4.32Zm13.7 11.68c-.05.1-.73-.15-1.76-.7-.26-.14-.54-.29-.83-.47l-.92-.58a24.55 24.55 0 0 1-4.6-3.97l-.63-.72c-.74-.89-1.1-1.51-1.02-1.58.2-.15 2.1 1.94 4.78 4.14 2.68 2.2 5.1 3.67 4.98 3.88Zm14.26 6.3c-.02.12-.52.13-1.32.03a15.96 15.96 0 0 1-5.93-2.07c-.69-.42-1.09-.74-1.02-.84.11-.2 1.9.59 4.17 1.36 2.25.8 4.14 1.28 4.1 1.52ZM76.24 78.07c.06.1-.31.43-1 .85a9.1 9.1 0 0 1-2.97 1.14c-.63.1-1.25.11-1.8.04a5.04 5.04 0 0 1-1.42-.4 3 3 0 0 1-.83-.54c-.16-.16-.24-.28-.2-.31.08-.1.51.12 1.24.3a6.96 6.96 0 0 0 2.88.08c1.12-.2 2.12-.58 2.85-.84.73-.27 1.2-.42 1.25-.32Zm1.33 2.78c.03.05-.09.18-.33.38l-.2.17-.26.16c-.2.12-.4.26-.66.37l-.4.2c-.14.06-.3.1-.44.17-.31.13-.66.22-1.01.33a10.93 10.93 0 0 1-4.82.16 6.98 6.98 0 0 1-1.02-.26l-.46-.15-.4-.17c-.28-.1-.5-.23-.68-.33l-.27-.15c-.08-.05-.16-.1-.22-.16-.25-.17-.38-.3-.36-.35.03-.05.2-.03.5.06l.24.08.3.09c.2.06.43.14.69.2.12.04.26.08.4.1l.45.1c.3.08.64.12.98.18a13.52 13.52 0 0 0 4.53-.14c.34-.07.66-.14.97-.24l.43-.13.4-.12c.25-.08.47-.18.67-.25l.28-.1.23-.09c.26-.12.42-.16.46-.11Zm1.89 2.36c.05.09-.65.63-1.92 1.31-.63.33-1.41.69-2.32 1-.9.33-1.93.58-3.04.7s-2.18.07-3.14-.1a9.36 9.36 0 0 1-2.45-.78 7.2 7.2 0 0 1-1.63-1.14c-.05-.06-.1-.1-.13-.15-.06-.1-.09-.14-.07-.17 0-.02.07-.01.17.03l.18.09.23.11c.35.18.84.44 1.5.68.63.24 1.42.44 2.33.57.9.12 1.9.14 2.93.04 2.08-.23 3.9-.9 5.2-1.4 1.3-.54 2.1-.9 2.16-.8Zm36.76-27.37c.23 0 .42-10.38.42-23.2 0-12.82-.2-23.2-.42-23.2-.24 0-.42 10.38-.42 23.2 0 12.82.18 23.2.42 23.2ZM35.37 63.2c.23 0 .42-12.8.42-28.6S35.6 6 35.37 6c-.23 0-.42 12.8-.42 28.6s.19 28.6.42 28.6Zm14.93-.8c7.13 0 12.9-.19 12.9-.42 0-.23-5.77-.42-12.9-.42-7.13 0-12.9.18-12.9.42 0 .23 5.77.42 12.9.42Zm43.1-.93c12.18 0 22.06-.2 22.06-.42 0-.24-9.88-.42-22.07-.42-12.18 0-22.07.18-22.07.42 0 .23 9.89.42 22.07.42Zm24.73.63c.17 0 .3-11.47.3-25.63 0-14.17-.13-25.64-.3-25.64-.17 0-.3 11.47-.3 25.64 0 14.16.13 25.64.3 25.64Zm-73.2 2.67c4.6 0 8.31-.14 8.31-.3 0-.17-3.72-.31-8.31-.31-4.6 0-8.31.14-8.31.3 0 .17 3.72.31 8.31.31Zm50.4-1.39c7.42 0 13.44-.14 13.44-.3 0-.17-6.02-.31-13.44-.31s-13.44.14-13.44.3c0 .17 6.02.31 13.44.31ZM76.67 4.58c22.44 0 40.63-.14 40.63-.3 0-.18-18.2-.32-40.63-.32-22.45 0-40.64.14-40.64.31 0 .17 18.2.3 40.64.3Zm0 4.04c21.58 0 39.08-.14 39.08-.3 0-.18-17.5-.31-39.08-.31-21.59 0-39.08.13-39.08.3 0 .17 17.5.3 39.08.3Z"/>
  <path fill="#000" stroke="#000" stroke-miterlimit="10" d="M118.28 16.55c.17 0 .3-2.89.3-6.45 0-3.57-.13-6.45-.3-6.45-.17 0-.3 2.88-.3 6.45 0 3.56.13 6.45.3 6.45Zm-4.79-.54c-.16.1-1.19-1.2-2.55-2.72-1.35-1.53-2.54-2.7-2.42-2.85.1-.12 1.49.87 2.88 2.43 1.41 1.56 2.23 3.06 2.09 3.14Z"/>
  <path fill="#000" stroke="#000" stroke-miterlimit="10" d="M113.42 9.98c.13.13-1.07 1.38-2.34 3.08-1.28 1.68-2.16 3.17-2.32 3.08-.08-.04.05-.46.35-1.1a14.85 14.85 0 0 1 3.34-4.41c.54-.47.9-.7.97-.65ZM98.85 92.13c-.09.15-1.47-.5-3.02-1.52-1.57-1.02-2.7-2.02-2.6-2.15.1-.14 1.4.62 2.94 1.63 1.55 1 2.77 1.89 2.68 2.04Z"/>
  <path fill="#000" stroke="#000" stroke-miterlimit="10" d="M96.17 90.63c1.28-1.53 2.21-2.85 2.08-2.96-.13-.1-1.27 1.04-2.55 2.56-1.29 1.53-2.22 2.85-2.1 2.96.14.11 1.28-1.04 2.57-2.56Z"/>
  <path fill="#000" d="M75.74 38.26c-.31.63-1.09.8-1.62.95-1.24.35-3 .14-3.76-.95-1.04-1.45.21-3.73.67-4.57 1.15-2.1 2.16-1.87 3.76-4.03 1.28-1.72.73-1.98 2.55-5.24 1.91-3.43 2.99-4 3.76-4.17.63-.14 1.13-.05 2.29.26 3.76 1.04 6.15 2.17 8.87 3.1 1.62.55 3.12.9 3.76 1.07 2.33.6 2.58.36 3.5.8 1.61.8 3.1 2.44 3.22 4.32.03.43.09 1.34-.53 2.01-.8.88-2.13.7-2.29.68a6.4 6.4 0 0 1 2.02 3.36c.11.51.7 3.11-.95 4.7-1.23 1.22-3.15 1.26-4.3.95-2.96-.79-5.05-5.02-5-10.54-.31.12-1.23.48-2.35.19a3.4 3.4 0 0 1-1.54-.87 31.93 31.93 0 0 1-4.28 3.41c-.82.43-2.68 1.41-4.5.86-1.12-.33-1.44-1-2.17-.8-.7.19-1.22 1-1.37 1.73-.24 1.27.68 1.94.26 2.78Zm73.13 57.67a3.25 3.25 0 0 1-1.56-1.16c-1.07-1.52-.22-3.38-.15-3.54a4.02 4.02 0 0 1 1.68-1.78 3.7 3.7 0 0 1 .34-2.44c1.13-1.95 4.59-2.48 6.48-1.27 1.59 1.01 1.46 2.8 3.37 3.46.65.23 1.07.16 1.77.59 1.01.6 1.38 1.5 1.69 2.02 1.49 2.49 4.43 1.24 6.49 3.71a5.49 5.49 0 0 1 1 5.23 5.11 5.11 0 0 1-2.1 2.45c.04.48.09 1.8-.75 3.03-.68.98-2.22 2.32-3.88 1.85-1.27-.36-1.87-1.58-2.01-1.89.23-.11 1.72-.89 2.01-2.5.16-.81.08-2.29-.8-2.62-.73-.28-1.88.28-2.46 1.5a5.72 5.72 0 0 1-2.22-1.5l-.13-.15c-.44-.54-1.32-1.92-2.11-6.15-.16-.85-.36-2.08-.53-3.58.1 1.66-.5 2.78-1.04 2.83-.49.04-1.1-.75-1.44-1.85-.4-.01-1.19.03-1.97.52-1.64 1.04-1.68 3.08-1.68 3.24Z"/>
  <path fill="#000" stroke="#000" stroke-miterlimit="10" d="M146.9 101.9c-.05.02-.12-.05-.28-.16a3.5 3.5 0 0 0-.7-.3 6.76 6.76 0 0 1-.53-.22 1.7 1.7 0 0 1-.6-.47c-.04-.06-.09-.13-.13-.23a.46.46 0 0 1-.02-.3l.04-.14a.3.3 0 0 1 .06-.13l.11-.18a11.98 11.98 0 0 1 2.38-2.56c.56-.44.94-.64.99-.58.11.14-1.14 1.28-2.41 2.9a8 8 0 0 0-.46.6l-.09.12-.01.03-.01.03v.05s0 .03.03.07c.18.28.55.46.84.63.31.16.57.35.7.53.1.17.12.28.08.3Z"/>
  <path fill="#000" stroke="#000" stroke-miterlimit="10" d="M153.12 113.32c-.06 0-.1-.2-.25-.55a3.32 3.32 0 0 0-.98-1.18 7.79 7.79 0 0 0-2.09-1.05c-.42-.15-.88-.32-1.35-.53a5.55 5.55 0 0 1-1.38-.87 3.21 3.21 0 0 1-.95-1.38 4.06 4.06 0 0 1-.2-1.53 16.42 16.42 0 0 1 .39-2.43c.28-1.35.5-2.2.58-2.18.1.01.03.86-.15 2.24l-.15 1.12c-.05.4-.1.83-.1 1.27a2.91 2.91 0 0 0 1 2.42c.36.32.78.57 1.21.78l1.3.56a13.04 13.04 0 0 1 1.72.88 4 4 0 0 1 .45.35c.54.5.83 1.05.93 1.44.1.41.05.64.02.64Z"/>
  <path fill="#000" stroke="#000" stroke-miterlimit="10" d="M150.02 104.04c.02.03-.1.2-.4.4a3 3 0 0 1-1.26.5 3.03 3.03 0 0 1-1.35-.12c-.33-.12-.5-.26-.49-.28.03-.04.22.01.54.07.16.03.35.06.56.07.22 0 .44 0 .69-.04a5.04 5.04 0 0 0 1.2-.36c.3-.16.47-.27.5-.24Zm2.97-6.06c-.04.02-.12-.11-.22-.31s-.23-.48-.43-.74a2.4 2.4 0 0 0-.6-.57c-.18-.11-.32-.16-.3-.21 0-.04.16-.07.39.01s.53.27.76.57c.23.31.33.63.38.86.07.23.07.38.02.4Z"/>
  <path fill="#000" stroke="#000" stroke-miterlimit="10" d="M152 96.63c.04.02.02.24-.1.59-.05.16-.13.37-.23.59l-.07.16-.03.05-.04.08a.5.5 0 0 1-.09.13.38.38 0 0 1-.21.14.15.15 0 0 1-.13-.02c-.04 0-.08-.05-.1-.07-.01-.02-.03-.03-.03-.05l-.01-.08c-.01-.05-.03-.09-.03-.15v-.27c.02-.14.03-.27.06-.38.06-.25.13-.45.24-.62.19-.33.37-.47.4-.44.04.02-.07.21-.2.53-.06.17-.11.36-.15.58l-.04.34v.17c0 .01.02.02.04.01l.04-.03v-.02l.02-.01.01-.03.1-.15.29-.55c.11-.3.23-.51.26-.5Z"/>
  <path fill="#000" stroke="#000" stroke-miterlimit="10" d="M151.26 97.72c-.07-.03-.07-.34.08-.7.16-.34.37-.57.44-.53.07.05-.02.33-.16.65-.13.35-.27.6-.36.58Z"/>
  <path fill="#000" stroke="#000" stroke-miterlimit="10" d="M151.87 96.8c-.04 0-.08-.03-.12-.07a.3.3 0 0 1-.08-.11.66.66 0 0 1-.05-.14c0-.05 0-.09.02-.13.02-.04.07-.05.14-.04.06.02.12.08.18.16.03.09.05.17.02.23-.02.07-.06.1-.11.1Zm-.39.3c.08.03.07.25-.03.48l-.04.08c-.02.03-.03.04-.03.07a.62.62 0 0 1-.04.09l-.01.06-.01.05c-.01.02-.04.03-.08.03a.16.16 0 0 1-.1-.1c-.03-.07-.03-.13-.03-.2 0-.05.02-.08.03-.11l.04-.09c.09-.24.23-.4.3-.37Z"/>
  <path fill="#000" stroke="#000" stroke-miterlimit="10" d="M151.6 96.65c.02.06.1.1.18.06.08-.03.12-.1.1-.17-.03-.07-.11-.1-.19-.07s-.12.11-.1.18Zm2.25.22c-.05.02-.11-.2-.24-.52a3.17 3.17 0 0 0-.71-1.1 2.13 2.13 0 0 0-1.14-.58c-.33-.05-.55 0-.56-.05-.01-.04.2-.17.58-.17.38-.01.91.15 1.33.58.42.4.62.9.7 1.26.1.34.08.57.04.58Zm3.6 18.61c.04.07-.48.4-1.43.7a8.93 8.93 0 0 1-2.73.44c-.35 0-.73-.02-1.13-.11a3.7 3.7 0 0 1-1.1-.42 3.1 3.1 0 0 1-.83-.74 2.4 2.4 0 0 1-.43-.92 1.9 1.9 0 0 1 .73-1.91c.25-.15.42-.15.43-.12.01.04-.11.13-.28.31-.17.18-.37.5-.42.92-.04.22-.03.44.05.67.08.23.2.48.38.7a3.08 3.08 0 0 0 1.61.9c.66.14 1.35.11 1.98.07a15.6 15.6 0 0 0 1.64-.22c.92-.17 1.5-.35 1.53-.27Z"/>
  <path fill="#000" stroke="#000" stroke-miterlimit="10" d="M160 110.42a10.78 10.78 0 0 1-3.67 2.92c-.61.26-1.23.43-1.8.48-.57.06-1.1.03-1.52-.08-.42-.1-.75-.24-.95-.37-.2-.12-.31-.21-.3-.24.04-.06.5.2 1.3.32.41.06.9.06 1.43-.01a6.87 6.87 0 0 0 1.68-.49c1.15-.5 2.06-1.23 2.72-1.74a4.66 4.66 0 0 1 1.1-.8Zm.28-4.15c0-.02.14-.04.38-.09a3.04 3.04 0 0 0 1.95-1.55c.28-.51.45-1.14.51-1.81.03-.34.05-.67-.06-.93a1.1 1.1 0 0 0-.57-.57c-.25-.11-.51-.14-.76-.11-.24.04-.46.13-.65.23-.37.22-.62.5-.78.67-.06.1-.08.18-.07.25.01.06.04.07.04.09 0 0-.05 0-.1-.07-.03-.07-.02-.19.05-.32a2.75 2.75 0 0 1 .76-.8c.2-.13.45-.24.73-.3.28-.04.61-.02.9.1.3.14.6.38.74.72.08.18.1.36.1.54a4.6 4.6 0 0 1-.6 2.45c-.3.55-.73.94-1.13 1.18-.4.24-.78.33-1.04.36-.26 0-.4-.03-.4-.04Zm5.18 27.03c-.04-.01.02-.4.18-1.1.15-.71.37-1.72.6-2.98.24-1.25.5-2.75.62-4.42.13-1.67.14-3.52-.1-5.45a19.28 19.28 0 0 0-1.65-5.79l-.27-.53c-.19-.35-.36-.69-.56-1-.4-.6-.86-1.1-1.4-1.32a1.78 1.78 0 0 0-.8-.14c-.26.01-.5.09-.73.18-.22.08-.4.21-.59.33-.17.11-.31.24-.45.36-.27.22-.46.42-.6.54-.14.13-.22.2-.23.18a5.07 5.07 0 0 1 .67-.9c.13-.13.27-.28.45-.43.18-.14.37-.29.61-.4a2.18 2.18 0 0 1 1.84-.13c.33.13.63.33.92.59.28.25.52.55.74.86.43.65.82 1.37 1.18 2.16a19.04 19.04 0 0 1 1.5 5.38c.25 1.96.2 3.86.06 5.57a38.7 38.7 0 0 1-1.56 7.4 4.7 4.7 0 0 1-.43 1.04Zm-8.18-5.24c-.07.01-.21-.48-.31-1.3a29.3 29.3 0 0 1 .17-6.38c.1-.8.22-1.3.31-1.3.09.02.13.52.13 1.33a212.37 212.37 0 0 0-.17 6.31c-.02.83-.04 1.34-.13 1.34Zm-15.38 6.53c-.07-.15 3.06-1.68 7.05-3.25 3.99-1.58 7.3-2.62 7.37-2.45.06.17-3.17 1.45-7.14 3.03-3.98 1.57-7.22 2.83-7.28 2.67Z"/>
  <path fill="#000" stroke="#000" stroke-miterlimit="10" d="M146.59 141.97c-.14.1-1.43-1.4-2.75-3.44-1.3-2.04-2.14-3.84-2-3.91.16-.1 1.23 1.55 2.53 3.58 1.31 2.03 2.36 3.67 2.22 3.77Z"/>
  <path fill="#000" stroke="#000" stroke-miterlimit="10" d="M165.38 133.28c.03.02-.16.25-.59.58-.42.33-1.08.73-1.93 1.15-1.71.82-4.08 1.86-6.72 3a258.02 258.02 0 0 1-6.79 2.84c-1.74.7-2.85 1.08-2.88 1-.04-.07 1.01-.6 2.7-1.4a272.4 272.4 0 0 1 13.5-5.86c.88-.36 1.55-.69 2-.94.43-.25.67-.41.71-.37Zm-28.65 9.47c.03.05-.22.18-.56.5a6.3 6.3 0 0 0-.59.63c-.2.27-.43.59-.67.95-.24.35-.51.76-.86 1.17l-.12.15a.84.84 0 0 1-.22.2.61.61 0 0 1-.63 0 .63.63 0 0 1-.24-.23l-.07-.15-.06-.12a1.46 1.46 0 0 1-.06-.54 4.7 4.7 0 0 1 .59-1.82c.15-.3.32-.56.5-.84a21.84 21.84 0 0 1 2.98-3.74c.81-.83 1.6-1.52 2.3-2.05 1.4-1.07 2.38-1.57 2.42-1.5.05.07-.83.7-2.13 1.83a29.6 29.6 0 0 0-4.5 5c-.37.53-.74 1.07-1.04 1.6-.29.52-.5 1.05-.56 1.57-.01.1 0 .22.03.3l.02.07.03.05.04.06c.04.02.09.02.13 0l.07-.07c.04-.05.1-.09.13-.14.33-.36.61-.74.88-1.08.27-.35.52-.67.76-.92.25-.26.49-.46.7-.6.44-.25.72-.32.73-.28Z"/>
  <path fill="#000" stroke="#000" stroke-miterlimit="10" d="M137.64 149.98c-.02.02-.04.02-.1.01a.68.68 0 0 1-.26-.08 2.16 2.16 0 0 1-.75-.6c-.27-.3-.51-.74-.66-1.26a4.78 4.78 0 0 1-.15-1.72c.04-.6.16-1.16.26-1.64.1-.5.2-.93.3-1.3.18-.74.34-1.19.43-1.18.08.02.07.5 0 1.25l-.17 1.33c-.08.5-.15 1.03-.2 1.6-.03.55 0 1.08.09 1.52.1.46.26.84.45 1.15.37.61.8.83.76.92Z"/>
  <path fill="#000" stroke="#000" stroke-miterlimit="10" d="M140.05 144.55c.07.06-.35.63-.6 1.72a8.5 8.5 0 0 0-.2 2.5v.65c0 .11-.02.24-.06.37-.04.13-.1.27-.2.4a.8.8 0 0 1-.45.25.86.86 0 0 1-.5-.07 1.12 1.12 0 0 1-.57-.64c-.11-.24-.15-.44-.2-.66a6 6 0 0 1-.13-1.23 9.5 9.5 0 0 1 .2-2.06 15 15 0 0 1 .34-1.32c.1-.3.17-.47.21-.46.04.01.05.19.03.5-.03.33-.1.79-.14 1.36-.05.56-.1 1.24-.07 1.96.03.37.07.74.16 1.13.05.19.09.4.16.54l.12.2a.4.4 0 0 0 .14.12c.05.03.1.03.13.03a.37.37 0 0 0 .1-.05.77.77 0 0 0 .12-.41c.02-.09.02-.18.02-.27 0-.1 0-.2-.02-.3 0-.2 0-.41.02-.6a7.1 7.1 0 0 1 .37-2.04c.19-.56.44-.99.63-1.25.06-.07.1-.13.15-.17.03-.05.08-.09.1-.11.07-.08.11-.1.14-.1Z"/>
  <path fill="#000" stroke="#000" stroke-miterlimit="10" d="M144.64 140.25c.02.04-.08.2-.28.46-.2.27-.49.65-.8 1.13-.65.98-1.38 2.44-1.72 4.2-.09.42-.16.83-.26 1.24-.06.2-.1.4-.17.6-.03.06-.09.28-.16.39a.58.58 0 0 1-.34.27c-.23.06-.46-.05-.62-.25-.04-.05-.1-.08-.12-.13l-.07-.12c-.04-.08-.1-.14-.12-.22a2.84 2.84 0 0 1-.23-.85c-.05-.54-.01-.98.02-1.35.05-.74.11-1.18.19-1.16.07.01.12.43.16 1.17.03.37.03.82.12 1.28.05.22.11.47.23.67l.09.15.05.07.02.02c.03.03.08.07.12.05.02 0 .04-.03.05-.06l.01-.04.03-.1.15-.56c.09-.38.16-.8.25-1.23.1-.44.2-.9.36-1.3a10.2 10.2 0 0 1 1.62-3c.38-.49.73-.83.98-1.05.25-.22.41-.32.44-.28Zm-7.95-8.1c-.07-.02-.02-1.26.27-3.24l.13-.77.15-.84a49 49 0 0 1 3.1-10c.27-.6.52-1.19.78-1.7l.37-.77c.12-.25.24-.47.37-.7.94-1.76 1.64-2.8 1.7-2.75.08.06-.48 1.15-1.3 2.95l-.33.7c-.11.24-.21.51-.34.78-.24.53-.47 1.1-.73 1.7a69.88 69.88 0 0 0-2.66 8.08c-.16.63-.32 1.23-.45 1.8l-.19.82-.17.77c-.4 1.95-.6 3.17-.7 3.16Zm5.72-21.67c-.04.02-.31-.3-.77-.92l-.38-.5-.42-.65c-.3-.46-.65-.97-.99-1.56l-.53-.94-.55-1.03-.28-.55-.14-.28-.14-.3-.56-1.19a43.5 43.5 0 0 1-3.24-11.32l-.16-1.31-.04-.32c-.02-.1-.02-.2-.03-.32l-.05-.61-.09-1.16-.04-1.08c-.04-.68-.01-1.3 0-1.84.01-.27.01-.53.03-.76l.05-.63a4 4 0 0 1 .16-1.19c.06 0 .07.42.08 1.19v.63c.01.23.03.49.03.76.02.53.02 1.16.09 1.83l.07 1.06.12 1.15.06.6.04.3.05.32.2 1.3c.28 1.77.7 3.7 1.25 5.69a51.68 51.68 0 0 0 1.94 5.5l.53 1.2c.03.1.08.18.12.29l.14.28.27.55c.18.35.33.7.51 1.03l.5.94c.3.61.62 1.14.89 1.6a22.37 22.37 0 0 0 .7 1.2c.4.63.61 1.01.57 1.04Zm3.83-14.42c-.02.04-.24-.1-.6-.38l-.29-.23-.33-.31c-.23-.22-.51-.46-.78-.76l-.43-.48c-.14-.16-.3-.34-.44-.53-.3-.37-.6-.8-.91-1.23a28.47 28.47 0 0 1-3.14-6.2c-.18-.49-.36-.97-.51-1.42l-.4-1.25c-.45-1.54-.67-2.51-.58-2.54.09-.02.44.9 1 2.4l.48 1.22.54 1.4a37.12 37.12 0 0 0 3.07 6.1c.3.42.57.84.85 1.21l.4.54.39.48c.24.32.48.58.69.82l.3.33c.08.1.17.2.25.27.31.33.47.53.44.56Z"/>
  <path fill="#000" stroke="#000" stroke-miterlimit="10" d="M137.47 80.3c.01.09-.2.2-.51.32-.32.11-.77.24-1.22.44-.45.2-.8.44-1.05.64-.24.2-.4.36-.47.32-.08-.02-.06-.28.14-.61.2-.33.61-.7 1.13-.92a3.6 3.6 0 0 1 1.4-.3c.34-.02.57.03.58.11Zm-.18-.5c-.04 0-.1-.3-.18-.86-.05-.57-.07-1.4.02-2.4.09-1 .3-2.2.66-3.5a47.5 47.5 0 0 1 1.34-4.11l.75-2.07c.12-.32.2-.62.2-.92v-.15l-.02-.06-.04-.07-.03-.02v-.02l-.02.02-.08.07-.04.05-.1.15-.37.58-.67 1.12-1.14 1.84c-.16.25-.3.47-.4.68-.1.2-.15.38-.18.53-.06.3 0 .47-.04.49-.01 0-.05-.03-.08-.12a1.02 1.02 0 0 1-.06-.4c0-.17.03-.38.11-.62.08-.23.2-.48.35-.75l1.02-1.9.63-1.15.37-.62.1-.16.18-.24.4-.46.06.03.08.05.14.11a.6.6 0 0 1 .13.13l.11.15c.07.12.12.25.16.39.02.06.02.15.03.19 0 .05 0 .1.02.15 0 .4-.1.77-.22 1.12-.23.68-.48 1.37-.74 2.07-.52 1.44-1 2.8-1.38 4.05a27.03 27.03 0 0 0-.78 3.4c-.15.98-.17 1.78-.21 2.33-.03.58-.04.89-.08.9Zm-2.48-18.57c.03.02-.1.26-.23.72a3.8 3.8 0 0 0-.13.87c-.03.34-.01.74.02 1.17.03.44.08.92.1 1.46.02.53 0 1.1-.07 1.7-.13 1.19-.42 2.47-.63 3.8-.19 1.3-.2 2.58-.12 3.74.07 1.16.23 2.2.37 3.07l.33 2.08c.08.5.09.77.05.78-.04.01-.14-.26-.28-.73a30.45 30.45 0 0 1-1.03-5.16c-.12-1.19-.13-2.51.07-3.9.2-1.35.51-2.6.67-3.75.07-.58.12-1.12.12-1.63l-.02-1.46c0-.44.01-.86.07-1.22.06-.36.14-.66.25-.9.21-.48.43-.67.46-.64Zm1.59-3.03c.01.03-.06.12-.2.27-.14.17-.33.4-.5.72-.18.31-.28.74-.33 1.22-.04.48-.05 1.06-.08 1.63-.04 1.17-.05 2.23-.1 3-.04.76-.1 1.25-.15 1.23-.07 0-.1-.47-.14-1.24-.03-.77-.06-1.84-.02-3.01.03-.59.04-1.15.12-1.67.04-.26.09-.51.16-.74.08-.23.18-.44.3-.6.21-.35.47-.56.65-.7.16-.08.28-.12.29-.1Zm1.1.2c-.02.02-.1-.07-.28-.03a.45.45 0 0 0-.27.15.9.9 0 0 0-.18.39c-.04.16-.05.37-.08.58l-.07.69-.18 1.58c-.24 2.25-.35 4.08-.47 4.07-.12 0-.2-1.85.05-4.12a36.42 36.42 0 0 1 .32-2.28c.03-.22.07-.42.14-.61.06-.2.16-.37.3-.49.14-.11.3-.14.42-.14.13.01.22.05.26.1.05.07.06.1.05.1Zm.48.72c.06.03-.02.36-.09.9l-.02.21c-.02.08-.02.15-.02.23 0 .15 0 .33-.02.51-.02.36-.02.77-.03 1.19a18.17 18.17 0 0 1-.14 1.73c-.01.08-.02.17-.05.24l-.06.22c-.17.55-.39.84-.42.82-.07-.03.05-.36.14-.88l.03-.2.03-.24c.03-.15.03-.33.04-.5.01-.36.03-.77.03-1.2 0-.41.02-.82.05-1.2.02-.18.03-.35.06-.51l.04-.25.05-.21c.14-.58.33-.88.38-.86Zm.7 7.1c-.11 0-.2-1.56-.2-3.5 0-.97.02-1.84.06-2.48.03-.3 0-.54-.06-.68s-.14-.2-.13-.23c.01-.03.13-.02.27.15.13.15.2.45.22.76.03.64.06 1.5.06 2.48-.01 1.94-.1 3.5-.22 3.5Zm-43.64-25.8c.04.02-.1.34-.38.92a38.79 38.79 0 0 1-3.53 5.72l-.36.45-.38.44a13.7 13.7 0 0 1-1.3 1.33l-.23.22-.25.2c-.16.14-.33.28-.5.4l-.54.39c-.18.14-.37.24-.55.36-.09.06-.2.11-.28.18l-.14.08-.14.08c-.38.2-.75.4-1.16.56-.4.17-.8.3-1.24.35-.42.06-.87.02-1.26-.08-.4-.1-.75-.27-1.08-.45a15.2 15.2 0 0 1-4.27-3.71c-.4-.5-.57-.81-.54-.84.04-.02.28.23.71.7a20.33 20.33 0 0 0 3.46 2.86c.56.36 1.16.73 1.83.88.34.08.68.09 1.04.04a4.7 4.7 0 0 0 1.08-.32c.37-.14.71-.36 1.08-.55l.14-.08.13-.07c.1-.05.18-.12.27-.17.18-.11.36-.22.52-.34.18-.13.35-.24.51-.37l.49-.4.24-.19.23-.2.44-.41c.29-.3.58-.56.82-.86l.38-.43.36-.43c.94-1.15 1.7-2.27 2.32-3.22l1.45-2.26c.37-.51.6-.8.63-.78Z"/>
  <path fill="#000" stroke="#000" stroke-miterlimit="10" d="M81.15 51.18c.08.05-.12.48-.52 1.16l-.15.27-.08.14-.06.1c-.03.04-.05.08-.1.1a.53.53 0 0 1-.5.17.74.74 0 0 1-.27-.13l-.11-.1-.06-.05-.03-.04-.04-.05-.03-.04-.06-.08-.13-.16-.24-.35a11.32 11.32 0 0 1-1.67-3.58c-.2-.77-.22-1.26-.14-1.28.18-.03.67 1.81 1.87 3.82.14.25.3.48.45.71l.23.33.21.3.04.06.02.02c0 .02.02.03.05.04.04.03.09.02.11-.02l.03-.03.02-.04c.04-.03.07-.09.1-.12l.2-.25c.45-.6.79-.95.86-.9Z"/>
  <path fill="#000" stroke="#000" stroke-miterlimit="10" d="M79.83 52.26c-.14.1-.87-.72-1.53-1.88s-1-2.22-.84-2.29c.15-.07.72.83 1.37 1.98.65 1.13 1.14 2.1 1 2.2Z"/>
  <path fill="#000" stroke="#000" stroke-miterlimit="10" d="M80.72 50.94c-.04.07-.27.03-.6-.1a5.19 5.19 0 0 1-2.13-1.8c-.19-.3-.27-.53-.2-.58.14-.1.75.49 1.54 1.15.78.66 1.47 1.17 1.39 1.33Z"/>
  <path fill="#000" stroke="#000" stroke-miterlimit="10" d="M80.36 51.64c-.05.07-.19.07-.38 0a1.9 1.9 0 0 1-.66-.45 1.84 1.84 0 0 1-.46-.66c-.08-.2-.08-.35 0-.38.15-.1.5.21.9.6.37.39.7.75.6.89Z"/>
  <path fill="#000" stroke="#000" stroke-miterlimit="10" d="M80.43 51.87c.24-.42.31-.83.16-.92-.14-.08-.46.2-.7.62-.23.42-.3.83-.16.92.15.08.46-.2.7-.62Z"/>
  <path fill="#000" stroke="#000" stroke-miterlimit="10" d="M80.82 51.42c0 .09-.09.17-.24.2a1 1 0 0 1-.59-.07.93.93 0 0 1-.43-.38c-.08-.14-.08-.26-.01-.32.06-.07.17-.05.29-.03.13.03.27.1.4.15.16.07.29.14.39.2.11.09.2.16.2.25ZM68.02 74.2c-.04 0 .04-.53.1-1.47.05-.95.1-2.34-.15-4.02-.13-.83-.33-1.75-.71-2.65-.39-.9-.96-1.8-1.79-2.5-.22-.17-.42-.35-.66-.5l-.18-.11-.09-.07-.09-.05-.37-.2a9.77 9.77 0 0 0-1.64-.64 29.14 29.14 0 0 0-3.7-.76c-1.29-.2-2.56-.43-3.76-.77a21.38 21.38 0 0 1-4.86-2 6.55 6.55 0 0 1-1.8-1.56l-.2-.32-.1-.15-.08-.16c-.05-.12-.11-.22-.15-.34l-.12-.33c-.04-.11-.05-.23-.09-.33l-.03-.16-.03-.17-.04-.33-.01-.32v-.15l.01-.16.01-.3c.03-.2.04-.39.08-.58l.05-.26c.01-.04.01-.1.03-.13.01-.04.02-.1.04-.13.17-.67.4-1.22.63-1.64.05-.12.12-.2.17-.3l.15-.25c.1-.16.2-.3.27-.38.15-.2.24-.31.25-.3.04.03-.26.46-.66 1.33-.19.43-.4.98-.53 1.63-.02.04-.02.08-.03.13l-.02.13-.04.25c-.03.18-.04.36-.05.55v.56l.03.3.05.3.03.15.04.15.09.31.11.3.14.3.08.15c.02.05.06.1.09.14.06.1.11.2.19.28.14.18.3.36.47.53.7.66 1.66 1.14 2.68 1.6 1.02.46 2.13.86 3.3 1.18 1.17.33 2.42.53 3.71.74 1.29.2 2.56.42 3.76.79a11.27 11.27 0 0 1 2.12.9l.1.05.1.07.18.12c.26.16.49.36.72.54l.31.3.3.32.14.17.13.16.24.35c.3.46.55.94.74 1.43.38.95.57 1.9.67 2.76.2 1.73.12 3.13 0 4.08-.15.93-.3 1.44-.33 1.44Z"/>
  <path fill="#000" stroke="#000" stroke-miterlimit="10" d="M70.72 69.6c.08.01.07.33-.05.83a8.61 8.61 0 0 1-1.17 2.82c-.18.3-.38.55-.6.71a1.3 1.3 0 0 1-.33.2c-.1.03-.2.04-.3.04-.16 0-.24-.06-.22-.08 0-.04.09-.07.19-.12.11-.05.25-.14.4-.32.13-.16.29-.4.43-.67.15-.28.3-.6.47-.95.65-1.34 1.03-2.48 1.18-2.46Z"/>
  <path fill="#000" stroke="#000" stroke-miterlimit="10" d="M72.57 68.67c.02 0 .04.04.08.14s.06.24.1.42c.07.37.1.92.04 1.6-.06.67-.2 1.46-.43 2.32-.12.42-.22.88-.39 1.34-.16.45-.4.95-.79 1.36l-.15.15c-.05.04-.15.12-.25.17a.55.55 0 0 1-.76-.33.65.65 0 0 1-.03-.3 1.13 1.13 0 0 1 .05-.33l.02-.09c.1-.46.2-.9.27-1.32.14-.86.23-1.64.28-2.29.1-1.3.1-2.12.18-2.12.06 0 .2.81.2 2.15a16.6 16.6 0 0 1-.42 3.71l-.01.09-.01.08c-.02.05-.02.1-.02.14 0 .03 0 .06.03.09.02.02.05.02.08 0 0-.02 0 0 .06-.04l.11-.12c.32-.32.53-.74.7-1.17.15-.43.27-.87.39-1.29.24-.84.42-1.6.53-2.23.2-1.3.05-2.1.14-2.13ZM72 75.14c.03 0 .05.07.11.11.04.03.1.05.16.05.06.01.14-.01.18-.04.09-.06.16-.2.23-.38l.08-.32.1-.36c.13-.48.27-1.04.38-1.64.37-1.99.29-3.65.44-3.66.08-.01.18.4.24 1.08a10.73 10.73 0 0 1-.6 4.38c-.03.13-.08.24-.12.35l-.14.34c-.05.1-.12.21-.2.3a.92.92 0 0 1-.27.22.52.52 0 0 1-.4 0 .44.44 0 0 1-.22-.18c-.03-.08-.03-.14-.03-.18.03-.06.05-.07.06-.07Zm4.02-1.04c-.03-.02.11-.18.25-.5.06-.17.12-.38.14-.62.03-.24.01-.53-.04-.84a6.87 6.87 0 0 0-.25-1c-.13-.38-.27-.76-.44-1.16a52.8 52.8 0 0 0-1.17-2.57l-1.24-2.58c-.36-.79-.7-1.5-.99-2.09-.59-1.17-1.06-1.85-1-1.9.06-.05.64.56 1.33 1.71.35.58.72 1.28 1.11 2.07.4.77.83 1.64 1.28 2.55a27.96 27.96 0 0 1 1.54 3.82 5.14 5.14 0 0 1 .16 2.03 2 2 0 0 1-.25.66c-.22.35-.42.45-.43.42Z"/>
  <path fill="#000" stroke="#000" stroke-miterlimit="10" d="M75.77 73.62c-.15.02-.4-.69-.83-1.5-.42-.8-.88-1.4-.77-1.51.05-.05.24.04.48.25a3.8 3.8 0 0 1 1.17 2.2c.05.34.03.55-.05.56Zm9.07-21.88c.06.03-.04.47-.4 1.12a7.59 7.59 0 0 1-3.16 3.11c-.43.23-.88.39-1.26.44-.38.05-.7 0-.9-.07l-.24-.1c-.05-.04-.06-.06-.06-.08.03-.07.46.05 1.1-.12.34-.1.71-.26 1.1-.49.4-.24.8-.53 1.22-.88.81-.69 1.44-1.44 1.86-2.01.44-.58.67-.96.74-.92Zm-8.46 1.87c-.07 0-.15-.79-.38-2.06-.11-.64-.27-1.38-.48-2.2-.22-.81-.49-1.7-.88-2.58a5.51 5.51 0 0 0-1.57-2.12 3.28 3.28 0 0 0-1.98-.66c-.3 0-.57.05-.8.13l-.17.05-.15.06a.18.18 0 0 1-.08.03l-.06.03-.11.07-.34.24c-.07.06-.11.09-.14.08-.02-.02 0-.07.06-.14.05-.1.14-.2.28-.34a.82.82 0 0 0 .11-.1c.03-.01.04-.04.06-.05a.27.27 0 0 0 .08-.05l.15-.1c.05-.03.12-.05.18-.1.26-.1.55-.18.9-.22.34-.03.72 0 1.12.09.4.1.8.27 1.17.55a5.58 5.58 0 0 1 1.76 2.28c.22.46.37.93.52 1.38a20.4 20.4 0 0 1 .74 3.58c.14 1.34.08 2.15.01 2.15Z"/>
  <path fill="#000" stroke="#000" stroke-miterlimit="10" d="M74.43 52.91c-.08.01-.16-.5-.4-1.32l-.08-.32-.11-.33-.27-.73a12.44 12.44 0 0 0-1.84-3.05c-.18-.2-.34-.4-.52-.58l-.24-.26c-.08-.08-.17-.15-.23-.23-.6-.57-1.02-.9-.98-.97.03-.05.53.15 1.22.68a4 4 0 0 1 .27.21l.28.25c.19.16.38.37.58.57.39.43.78.93 1.13 1.5.34.58.6 1.16.8 1.7.09.28.18.54.24.78l.1.36.05.33c.12.86.07 1.41 0 1.41Zm-5.2-8.1c.02.07-1.17.31-3.1.66-1.92.34-4.59.77-7.53 1.22l-2.16.32c-.68.1-1.36.2-1.98.33a12.31 12.31 0 0 0-3.23.97c-.87.4-1.5.88-1.87 1.24-.1.09-.2.16-.26.24l-.18.19c-.1.1-.16.15-.18.14a.6.6 0 0 1 .1-.2l.13-.23.23-.3c.36-.42.98-.97 1.86-1.44a13.26 13.26 0 0 1 3.3-1.12c.64-.14 1.32-.25 2-.37l2.16-.33c2.95-.45 5.63-.83 7.56-1.07 1.93-.22 3.14-.33 3.15-.26Zm20.6 15.98c-.08.01-.22-.53-.48-1.4a15.1 15.1 0 0 0-1.32-3.24 9.94 9.94 0 0 0-2.2-2.68c-.67-.58-1.17-.86-1.13-.93.02-.06.58.1 1.36.64.39.27.82.62 1.24 1.08.42.46.83 1.01 1.19 1.64.7 1.25 1.05 2.5 1.22 3.41.19.9.19 1.47.11 1.48ZM72.18 62.1c-.02.03-.2-.14-.48-.47-.07-.07-.16-.16-.23-.26l-.3-.31c-.2-.22-.43-.49-.7-.75a6.54 6.54 0 0 0-.42-.42l-.47-.45c-.32-.32-.68-.62-1.06-.96a48.77 48.77 0 0 0-2.56-2.02c-1.89-1.37-3.67-2.48-4.97-3.3-1.3-.8-2.08-1.33-2.04-1.4.03-.07.89.34 2.24 1.08a49.1 49.1 0 0 1 5.09 3.18 29 29 0 0 1 2.57 2.1c.37.35.73.67 1.04 1l.45.47.4.46.65.82.26.34.2.3c.24.37.36.58.33.6Z"/>
  <path fill="#000" stroke="#000" stroke-miterlimit="10" d="M70.16 60.27c0 .08-.38.08-.95.1l-.23.01-.24.03-.54.06a9.82 9.82 0 0 0-2.36.7c-.16.07-.33.14-.48.22l-.22.12-.2.11c-.51.28-.82.49-.87.43-.05-.05.18-.35.65-.74l.2-.14c.05-.05.13-.1.2-.14l.5-.29a7.2 7.2 0 0 1 2.53-.74c.2-.01.4-.02.57-.01l.26.01.24.03c.6.04.96.18.94.24Zm18.8-20.52c.02.03-.02.14-.12.32-.09.2-.21.46-.33.8-.11.35-.23.78-.34 1.27-.12.48-.25 1.03-.47 1.6-.12.29-.26.55-.43.8-.15.24-.37.47-.6.63-.22.17-.52.28-.8.27a1.06 1.06 0 0 1-.69-.28 1.54 1.54 0 0 1-.34-.46 1.63 1.63 0 0 1-.15-.37c-.07-.21-.08-.33-.04-.34.04-.02.11.07.23.25l.21.3c.1.12.2.24.34.33.12.09.29.14.45.12a.99.99 0 0 0 .51-.21c.17-.14.32-.3.46-.52.14-.2.26-.45.36-.7.2-.52.35-1.05.49-1.54.14-.48.29-.93.47-1.28.16-.36.37-.62.5-.78.15-.17.25-.23.29-.2Zm-4.63 7.7c.01.03-.03.1-.13.17s-.28.13-.5.14a1.96 1.96 0 0 1-1.5-.8 3.62 3.62 0 0 1-.56-1.54c-.05-.4-.03-.65.05-.67.08-.01.18.22.32.59s.3.87.62 1.31c.16.2.35.38.55.5.2.11.4.2.56.23.3.06.55 0 .59.08Zm.2-9.52c.08.01.12.15.08.38a1.63 1.63 0 0 1-1.1 1.25c-.23.07-.38.04-.4-.03-.02-.08.07-.17.21-.31a5.3 5.3 0 0 0 .93-1.06c.13-.14.2-.24.28-.23Zm6.77 3.15c.07.03.1.17.05.4a1.87 1.87 0 0 1-1.12 1.27c-.21.08-.37.06-.4 0-.03-.06.06-.18.2-.33.14-.14.32-.33.5-.55.2-.22.35-.42.48-.57.11-.16.22-.24.3-.22Zm-3.76-4.61c-.06.05-.23-.07-.47-.23l-.45-.26a3.6 3.6 0 0 0-1.68-.4c-.3 0-.5 0-.52-.07-.03-.06.14-.2.47-.3.17-.06.37-.08.6-.08.23 0 .47.03.73.1.25.07.47.19.66.3a2 2 0 0 1 .45.4c.21.28.26.5.21.54Zm6.12 4.1c-.07.01-.16-.14-.32-.36l-.12-.16-.16-.18a2.76 2.76 0 0 0-.88-.6l-.21-.09-.2-.06c-.26-.07-.44-.1-.45-.18-.02-.07.15-.18.47-.2.07 0 .16-.02.25 0a1.8 1.8 0 0 1 .9.34 2.14 2.14 0 0 1 .65.73l.1.24c.09.3.04.5-.03.52Zm-15.9-1.02c0 .04-.15.06-.42.03a2.12 2.12 0 0 1-1.03-.5 2.75 2.75 0 0 1-.92-1.45 3.74 3.74 0 0 1 .07-2.08c.11-.36.24-.7.43-1 .19-.3.44-.58.76-.75.17-.09.34-.14.51-.15.18-.02.35 0 .5.04.3.08.55.25.73.44.18.2.28.41.33.6.05.2.08.36.06.5-.01.27-.07.4-.11.4-.04 0-.05-.15-.1-.38a1.62 1.62 0 0 0-.46-.85 1.17 1.17 0 0 0-.56-.28.95.95 0 0 0-.67.11c-.21.13-.4.34-.55.59-.15.26-.28.56-.36.87-.2.62-.23 1.26-.1 1.8a2.66 2.66 0 0 0 1.51 1.87c.24.11.38.15.38.2ZM79 54.67c-.08-.02-.1-.16-.07-.4a2.62 2.62 0 0 1 .87-1.5c.18-.14.32-.19.38-.14.1.1-.16.55-.47 1.09-.32.53-.57.99-.71.95Z"/>
  <path fill="#000" stroke="#000" stroke-miterlimit="10" d="M84.67 38.15c-.04.07-.4-.03-.81.01-.44.04-.76.2-.8.14-.03-.04.02-.13.16-.23s.36-.19.61-.21c.26-.03.5.02.65.1.14.07.2.15.2.19Zm6.84 3.19c-.07.06-.3-.08-.62-.14-.3-.08-.57-.04-.6-.13-.02-.04.04-.1.16-.15.13-.06.3-.08.5-.03.21.04.37.14.45.24.12.1.14.17.1.2Zm11.5-8.97c.01.03-.22.22-.68.36l-.18.05-.19.04a4 4 0 0 1-2.43-.3l-.4-.22a1.87 1.87 0 0 1-.16-.12l-.16-.11c-.37-.3-.52-.56-.5-.58.04-.04.25.17.63.4l.15.09.17.09.38.18a4.56 4.56 0 0 0 1.88.34l.42-.03c.06 0 .12 0 .19-.02l.18-.04c.42-.06.67-.17.7-.13Zm60.94 58.02c.08.06-.47.73-.78 1.74-.31 1-.25 1.88-.34 1.89-.04 0-.12-.22-.13-.57a3.82 3.82 0 0 1 .2-1.4 4.62 4.62 0 0 1 .63-1.27c.2-.28.38-.42.42-.4Z"/>
  <path fill="#000" stroke="#000" stroke-miterlimit="10" d="M165.09 91.77c0 .06-.18.08-.45.16l-.46.15c-.16.08-.34.15-.52.27a4.95 4.95 0 0 0-.82.69c-.19.2-.3.35-.33.33-.04-.01 0-.2.15-.46a2.77 2.77 0 0 1 .85-.83c.2-.11.4-.2.6-.27.19-.06.36-.09.52-.1.28-.02.46.03.46.06Zm-2.83 16.95c-.04.03-.17-.09-.35-.3a2.7 2.7 0 0 1-.55-.96 1.6 1.6 0 0 1 .07-1.14c.14-.26.3-.35.33-.33.04.04-.06.17-.13.4-.06.25-.09.6.03.98.11.37.29.69.43.93.13.23.2.4.17.42ZM74.23 40.07c-.03-.03.09-.14.24-.33a2.92 2.92 0 0 0 .46-.78c.07-.16.1-.33.14-.47.03-.15.04-.3.05-.4.02-.24 0-.39.04-.4.04-.01.13.13.18.38a1.8 1.8 0 0 1-.1 1 2 2 0 0 1-.6.83c-.23.16-.4.21-.41.17Z"/>
</svg>
